<svg width="50" height="50" viewBox="0 0 50 50" fill="none" xmlns="http://www.w3.org/2000/svg">
<path d="M37.5 25C34.75 25 32.5 27.25 32.5 30C32.5 32.75 34.75 35 37.5 35C40.25 35 42.5 32.75 42.5 30C42.5 27.25 40.25 25 37.5 25ZM37.5 32.5C36.125 32.5 35 31.375 35 30C35 28.625 36.125 27.5 37.5 27.5C38.875 27.5 40 28.625 40 30C40 31.375 38.875 32.5 37.5 32.5Z" fill="#EEBB7A"/>
<path d="M30 29.975C30 25.85 33.35 22.5 37.475 22.5H38.075L35.075 9.45C34.825 8.3 33.8 7.5 32.625 7.5H26.25C25.55 7.5 25 8.05 25 8.75C25 9.45 25.55 10 26.25 10H32.625L35 20.35C31.075 21.35 28.125 24.65 27.6 28.75H17.325C16.675 26.25 14.15 24.475 11.325 25.125C9.52503 25.55 8.07503 27 7.65003 28.8C6.87503 32.075 9.35003 35 12.5 35C14.825 35 16.775 33.4 17.325 31.25H30V29.975ZM12.5 32.5C11.125 32.5 10 31.375 10 30C10 28.625 11.125 27.5 12.5 27.5C13.875 27.5 15 28.625 15 30C15 31.375 13.875 32.5 12.5 32.5Z" fill="#EEBB7A"/>
<path d="M23.75 37.5H17.5L26.25 42.5V40H32.5L23.75 35V37.5Z" fill="#EEBB7A"/>
</svg>
